PathFileType	4	(X/Y/Z)	C:/Users/opensim2020/Desktop/walking_exp_matlab/subject03_walking06_straight_02.trc																																																																																																																																		
DataRate	CameraRate	NumFrames	NumMarkers	Units	OrigDataRate	OrigDataStartFrame	OrigNumFrames																																																																																																																														
100	100	4	44	mm	100	1340	238																																																																																																																														
Frame#	Time	LFHD			RFHD			LBHD			RBHD			C7			T10			CLAV			STRN			RBAK			LSHO			LUPA			LELB			LFRM			LWRA			LWRB			LFIN			RSHO			RUPA			RELB			RFRM			RWRA			RWRB			RFIN			LASI			RASI			LPSI			RPSI			LTHI			LKNE			LTIB			LANK			LHEE			LTOE			RTHI			RKNE			RTIB			RANK			RHEE			RTOE			*39			*40			*41			*42			*43		
		X1	Y1	Z1	X2	Y2	Z2	X3	Y3	Z3	X4	Y4	Z4	X5	Y5	Z5	X6	Y6	Z6	X7	Y7	Z7	X8	Y8	Z8	X9	Y9	Z9	X10	Y10	Z10	X11	Y11	Z11	X12	Y12	Z12	X13	Y13	Z13	X14	Y14	Z14	X15	Y15	Z15	X16	Y16	Z16	X17	Y17	Z17	X18	Y18	Z18	X19	Y19	Z19	X20	Y20	Z20	X21	Y21	Z21	X22	Y22	Z22	X23	Y23	Z23	X24	Y24	Z24	X25	Y25	Z25	X26	Y26	Z26	X27	Y27	Z27	X28	Y28	Z28	X29	Y29	Z29	X30	Y30	Z30	X31	Y31	Z31	X32	Y32	Z32	X33	Y33	Z33	X34	Y34	Z34	X35	Y35	Z35	X36	Y36	Z36	X37	Y37	Z37	X38	Y38	Z38	X39	Y39	Z39	X40	Y40	Z40	X41	Y41	Z41	X42	Y42	Z42	X43	Y43	Z43	X44	Y44	Z44
																																																																																																																																					
60	0.59	-516.84705	1606.57605	937.42834	-524.40723	1611.56531	1070.35742	-647.86835	1571.23962	934.72467	-650.24414	1575.53137	1065.76843	-687.27661	1410.34363	995.18164	-730.48859	1097.65149	1000.51868	-567.75635	1330.7981	996.70667	-528.6275	1164.79663	995.36346	-743.20996	1238.64343	1097.62683	-612.13959	1366.11035	839.87671	-636.38092	1166.78381	772.94788	-640.96259	1043.05127	765.64655	-630.33875	913.13043	769.013	-628.44781	794.30231	801.15485	-646.82788	801.47003	747.88013	-643.98492	716.76111	759.83997	-610.06055	1358.69519	1155.06299	-570.55402	1145.50452	1235.30896	-524.55902	1044.34814	1248.66736	-453.229	928.60931	1240.76709	-387.95541	859.69379	1196.66284	-410.93698	837.64392	1239.78601	-358.00824	787.64978	1224.52856	-555.82587	934.46808	892.44672	-566.07214	935.26141	1128.9812	-721.17548	946.90106	933.37042	-724.99194	961.47894	1083.04382	-521.67719	641.30682	841.73743	-450.52359	478.71115	877.49182	-474.11337	283.93588	874.06757	-464.90683	73.71304	909.8468	-501.90988	33.99317	949.04059	-319.06711	49.97613	931.02716	-639.02954	638.25262	1157.92822	-645.39923	459.11563	1117.67114	-715.98157	279.57022	1115.37183	-776.70697	72.51991	1061.25476	-823.3844	43.65902	1010.32721	-638.0351	31.98052	1051.64771	-596.61847	1676.18445	982.81653	NaN	NaN	NaN	NaN	NaN	NaN	NaN	NaN	NaN	NaN	NaN	NaN
61	0.6	-507.38406	1605.33948	937.13696	-515.02325	1610.47546	1070.04065	-638.30432	1569.68933	934.33215	-640.76746	1574.19861	1065.3866	-677.59271	1409.04968	994.87927	-721.03699	1096.37817	999.63495	-558.04254	1329.45789	996.67291	-519.12366	1163.42261	995.45929	-733.89172	1237.56335	1097.32825	-602.07068	1364.71216	839.66577	-628.14258	1165.52332	772.72778	-634.06616	1041.81702	765.35516	-625.22168	911.76904	768.72437	-625.18878	792.88574	800.66644	-643.03027	800.36487	747.38422	-641.78827	715.46246	759.26678	-600.48413	1357.37927	1154.82849	-560.50293	1144.36536	1235.07874	-513.94183	1043.49585	1248.09778	-441.16913	928.8656	1239.12354	-375.06836	861.15033	1194.22107	-397.75363	838.56421	1237.26428	-343.8595	789.73602	1221.54102	-545.75958	932.72687	892.26038	-557.28387	934.00366	1128.89624	-711.33246	945.30414	932.43439	-716.04456	960.28827	1082.10205	-515.29395	638.05762	841.61987	-442.84326	476.31488	878.86029	-457.52151	281.91702	874.63135	-437.14615	72.08852	909.40063	-472.61658	31.37042	948.06348	-289.94864	53.25406	931.62146	-632.62738	637.52338	1157.97583	-640.45239	458.31812	1117.85876	-713.31866	279.48239	1115.05286	-776.2951	73.09841	1061.20898	-823.19873	44.77863	1010.1488	-637.966	31.90989	1051.71875	-587.49567	1675.04968	982.5589	NaN	NaN	NaN	NaN	NaN	NaN	NaN	NaN	NaN	NaN	NaN	NaN
62	0.61	-497.91205	1603.99963	936.75946	-505.59387	1609.40613	1069.59961	-628.7923	1568.17627	933.9823	-631.25928	1572.88477	1065.0199	-667.8595	1407.75537	994.62091	-711.58533	1095.09082	998.65723	-548.27814	1328.16089	996.54755	-509.48123	1162.04626	995.44226	-724.48895	1236.39526	1096.86145	-591.99225	1363.37439	839.39233	-619.8526	1164.27051	772.42096	-627.1217	1040.65759	765.03284	-619.84399	910.44818	768.34985	-621.37439	791.49316	800.40271	-638.98492	799.33105	746.80908	-639.74231	714.3725	759.06006	-590.72656	1355.83997	1154.57727	-550.41901	1143.1676	1234.76135	-503.45953	1042.54199	1247.50684	-429.38348	928.89923	1237.47791	-362.74841	862.38135	1191.76172	-384.69107	839.21259	1234.86938	-330.25275	791.38116	1218.57178	-535.79736	930.88739	892.05072	-548.36212	932.79834	1128.65723	-701.46881	943.71466	931.5108	-707.07367	959.09961	1081.11267	-508.97861	634.76727	841.32507	-435.38861	473.80252	880.1712	-441.883	280.23199	875.14789	-410.66678	71.21181	908.97479	-444.11575	29.40647	947.75214	-262.39166	57.20234	932.09204	-626.15027	636.80682	1158.07263	-635.40601	457.5415	1117.99756	-710.36096	279.4653	1115.06433	-775.82593	73.86291	1061.15674	-823.0072	46.09683	1009.88336	-637.91986	31.82609	1051.73438	-577.82971	1673.56665	981.7019	NaN	NaN	NaN	NaN	NaN	NaN	NaN	NaN	NaN	NaN	NaN	NaN
63	0.62	-488.37161	1602.74268	936.26398	-496.08408	1608.34143	1069.17163	-619.16089	1566.58911	933.58551	-621.72467	1571.58533	1064.64954	-658.06854	1406.44849	994.29437	-701.89624	1093.79919	997.63745	-538.41101	1326.823	996.35803	-499.73938	1160.7074	995.36768	-715.01123	1235.20239	1096.34827	-581.91412	1362.07886	839.02692	-611.33264	1163.07031	772.16864	-620.02368	1039.54395	764.76239	-614.29816	909.2616	767.99194	-617.20941	790.3219	799.97687	-634.9433	798.18036	746.758	-636.93933	713.34888	758.58893	-581.18292	1354.62988	1154.29114	-540.37543	1141.90247	1234.34033	-493.08337	1041.52466	1246.8446	-417.96463	928.45825	1236.04199	-350.97934	862.91522	1189.42957	-372.25879	839.59283	1232.43958	-317.29709	792.76642	1215.63489	-525.66443	929.00134	891.74744	-539.7854	931.49689	1128.89734	-691.45709	942.15497	930.59015	-698.02643	957.90906	1080.08154	-502.57309	631.59021	840.87366	-428.22763	471.39203	881.51831	-427.0065	278.81259	875.74426	-385.88327	70.92801	908.8587	-417.72595	28.41999	946.98541	-236.48178	61.51899	932.46307	-619.65906	636.12079	1158.1333	-630.24341	456.76022	1118.1853	-707.46283	279.52606	1114.95264	-775.39368	74.63286	1060.82751	-822.72638	47.48701	1009.40161	-637.84869	31.76258	1051.72986	-568.85693	1672.37659	981.42554	NaN	NaN	NaN	NaN	NaN	NaN	NaN	NaN	NaN	NaN	NaN	NaN
